<svg id="Layer_1" data-name="Layer 1" xmlns="http://www.w3.org/2000/svg" viewBox="0 0 365.84 107.96"><defs><style>.cls-1{fill:#9ad1a0}.cls-2{fill:#9ed2a4}</style></defs><path class="cls-1" d="M0 49.53c4.72-2.33 9.29-5 14.18-6.91 8.84-3.4 16.35 1.18 23.88 4.84 1.76.85.37 1.88-.29 2.73a20.74 20.74 0 01-24 6.72C9.09 55.09 4.6 52.67 0 50.52z"/><path class="cls-2" d="M213.47 86.87V72.49c0-1.37-.58-3.3 1.59-3.57 1.69-.21 4-.93 4.71 1.44.82 2.75 1.84 1.76 3.48.81 7.6-4.39 11.51-4 17.64 2 1.4 1.37 2.06 1.15 3.15 0a18.05 18.05 0 012.2-2c8.47-6.31 18.51-2.53 19.63 7.87.83 7.69.27 15.52.39 23.28 0 2.37-1.38 2.62-3.23 2.63s-3.64-.09-3.6-2.79c.08-5.78.05-11.57 0-17.35 0-7.35-1.91-10.31-6.47-10.37-4.77-.06-9.57 5.14-9.72 10.8-.14 5.29-.1 10.58 0 15.87 0 2.46-.24 4-3.4 4s-3.39-1.67-3.36-4.08c.07-5.62.08-11.24 0-16.86-.14-6.62-2.08-9.53-6.15-9.64-4.59-.13-9.72 4.82-9.95 10s0 10.57-.08 15.86c0 2.23.66 4.66-3.18 4.71-3.57 0-3.58-1.9-3.54-4.42.08-4.62 0-9.25 0-13.88zm59.96-.39c0-4.63-.05-9.27 0-13.9 0-1.51-.69-3.71 1.85-3.85 1.75-.1 4.15-1.17 4.74 2 .49 2.59 1.87.93 2.86.41 8.3-4.32 11.35-4.07 18 2.19 1.62 1.52 2.26.58 3.13-.35a15.14 15.14 0 015.77-3.8c8.58-3.28 15.73 1.72 16.16 11.61.3 6.94 0 13.9.12 20.86 0 2.19-.51 3.38-3 3.37s-3.66-.88-3.65-3.45c0-6-.07-11.92-.14-17.88-.05-4.32-.37-8.62-6-9.2-4.57-.48-9.84 4.59-10.09 9.81s-.07 10.59-.06 15.89c0 2.49.53 5-3.54 4.89-3.79-.07-3.26-2.39-3.26-4.67v-15.9c-.07-6.84-1.73-9.65-5.79-10-4.81-.39-10.12 4.58-10.37 10.14s-.14 10.92 0 16.38c.05 2.53-.36 4-3.46 4-3.28 0-3.33-1.79-3.3-4.15.08-4.8.03-9.6.03-14.4z"/><path class="cls-1" d="M71.15 108c-11.89-4.76-24-5.81-37.39-4.65 13.18-10.92 8.53-24.91 8.72-37.84.16-11.46.58-22.84 3.93-33.9C47 59.48 48.23 87.06 71.15 108z"/><path class="cls-2" d="M95.94 80.68c0-15.93 15.11-27.74 29.72-23.19A18.44 18.44 0 01136.24 66c1.23 2-.09 3-1.58 3.92s-2.24 1.44-3.7-.24c-5.57-6.42-11.47-8.16-17.81-5.66-6.12 2.42-10.35 9.21-10.41 16.72-.09 12.46 11.07 21.44 21.71 17.51a12.83 12.83 0 006.63-5c1.42-2.27 2.46-3 5-1.29 2.92 2 1.28 3.6.08 5.33-5.28 7.6-17.88 10.5-26.42 6.11a26.63 26.63 0 01-13.8-22.72z"/><path class="cls-1" d="M190.23 105.26c-9.91 0-17.62-8-17.64-18.11 0-10.37 7.95-18.73 17.81-18.66a18.23 18.23 0 0117.91 18.6c-.04 10.41-7.81 18.22-18.08 18.17zm-10.9-18c0 7.08 4.57 12.11 11 12.16 6.61 0 11.24-5 11.27-12.41 0-7-5-12.66-11.23-12.61s-11.07 5.75-11.04 12.85zM82.42 50.19c-8 8.32-19.33 7.29-27.83 4.58-3.48-1.11-.86-2.88-.13-4.06C61.9 38.66 72 30.48 87 32.6a26.83 26.83 0 015 1.06c.25.1-5.11 11.87-9.58 16.53z"/><path class="cls-2" d="M349.09 87.6c0-2.65.05-5.29 0-7.94-.06-2.44.93-5.06-3.39-5.63-2.5-.33-2-4.7-.42-4.9 5.18-.64 3.68-4.09 3.8-6.92.11-2.45-.54-5 3.54-4.86 3.86.09 3.33 2.53 3.14 4.72-.36 4.36.16 7.55 5.88 6.63 2.12-.34 2.14 1.54 2.13 3.09s-.47 2.85-2.21 2.52c-6.47-1.2-5.91 3-5.78 7.11s.13 8.26 0 12.39 1.82 5.48 5.57 4.3c2-.61 3.26-1 4.18 1.49 1 2.7-.44 3.55-2.44 4.41-8 3.42-14-.41-14-9-.01-2.46 0-4.94 0-7.41zM142.8 77.64c0-5.45-.09-10.91 0-16.36.06-2.49-1.35-5.87 3.54-5.88s3.13 3.4 3.15 5.58c.15 10.91.1 21.82.06 32.72 0 3.64.57 6.55 5.31 5.07 1.86-.57 2.42.27 2.61 1.84s1.24 3.36-1.31 4c-6.29 1.49-12.87 1.46-13.22-8.1V77.64z"/><path class="cls-1" d="M38.89 66.19c-.06 10.91-9.29 22-19.7 23.83-2 .36-2.18-.66-2.17-2.18 0-12.1 6.69-21.84 18.12-26.52 3.09-1.26 3.78-.32 3.75 4.87zm13.95-33.44C52.77 21.25 57 15 66.8 11.43c3.2-1.17 3.83-.35 4.09 2.87 1 12.46-4.7 20.71-15.41 26.28-2.09 1.09-2.64.72-2.64-1.39v-6.44zm-11.48 6.47c-13.23-1.84-20.67-8.58-21.37-19-.24-3.64.18-5 4.51-3.58 10.95 3.6 15.44 11.67 16.86 22.58zM52.15 62.9c11.34-2.07 20.13 1 26 11.09 1.42 2.44 1.84 3.47-1.54 3.37-2.15-.06-4.31.08-6.46 0-10.38-.07-15.15-3.81-18-14.46z"/><path class="cls-2" d="M333.27 86.78c0-5 .05-9.9 0-14.84 0-2.18.52-3.41 3-3.37 2.27 0 3.76.3 3.74 3.17-.08 10.06 0 20.12.08 30.18 0 2.48-1.11 3-3.31 3.08-2.49 0-3.64-.69-3.56-3.37.15-4.94.05-9.9.05-14.85zm-172.65-.44c0-4.8.09-9.61 0-14.4-.07-2.39.86-3.28 3.2-3.18 2.08.08 3.54.51 3.54 3 0 10.09 0 20.19.15 30.29 0 2.52-1.18 3-3.37 3-2.51.06-3.61-.73-3.53-3.4.12-5.04.01-10.18.01-15.31z"/><path class="cls-1" d="M50.91 13.91c.14 3.22-1 7.78-3.93 8.84-2.5.88-4-4-5.59-6.54-3.19-5-1.2-10.16.5-15.18.5-1.47 1.42-1.16 2.22-.36 3.51 3.54 6.89 7.15 6.8 13.24z"/><path class="cls-2" d="M339.88 58.78c.19 3.19.48 5.43-3.19 5.33-3.44-.09-3.43-2.09-3.47-4.56 0-2.72.11-4.79 3.79-4.74 3.92.06 2.74 2.75 2.87 3.97zM167.32 60.4c.31 2.26-.14 3.94-3.54 3.91-3.79 0-3-2.46-3.18-4.67-.16-2.58.11-4.31 3.55-4.27 3.85.04 3.11 2.44 3.17 5.03z"/></svg>